<svg xmlns="http://www.w3.org/2000/svg" id="rocket"  class="hero__rocket" width="200px" viewBox="0 0 132.5 208.44"><circle cx="66.25" cy="142.19" r="66.25" fill="#d2d3d4"/><circle cx="60.75" cy="132.69" r="41.36" fill="#e6e7e8"><animateTransform attributeName="transform" type="rotate" from="0 70 140" to="360 70 140" dur="15s" repeatCount="indefinite"/>  </circle><circle cx="37.21" cy="159.64" r="13.71" fill="#e6e7e8"/><circle cx="35.21" cy="157.64" r="10.25" fill="#fff"/><circle cx="52.71" cy="122.44" r="8.04" fill="#fff"/><circle cx="88.57" cy="105.77" r="10" fill="#e6e7e8"/><circle cx="88.57" cy="104.6" r="8.04" fill="#fff"/><circle cx="96.46" cy="130.48" r="11.02" fill="#e6e7e8"/><circle cx="97.96" cy="129.6" r="8.04" fill="#fff"/><circle cx="22.13" cy="118.1" r="4.83" fill="#e6e7e8"/><circle cx="22.13" cy="118.1" r="2.83" fill="#fff"/><circle cx="97.28" cy="178.78" r="6.3" fill="#e6e7e8"/><ellipse cx="63.53" cy="93.98" rx="28.49" ry="5.19" transform="rotate(-4.99 53.932 107.89)" fill="#bcbdbd"/><path fill="#e35c5c" d="M53.71 51.88l-8.45 9.62.34 28.18 12.3-22.45-4.19-15.35zM82.12 51.88l8.44 9.62-.34 28.18-12.3-22.45 4.2-15.35zM67.91 0c-1.09 0-2.92 1.94-4.94 5.22h9.88C70.83 1.94 69 0 67.91 0z"/><path d="M72.85 5.22h-9.88c-4.55 7.35-10 21.44-10 35.24 0 10.65 1.92 20.21 5 26.81h20c3.05-6.6 5-16.16 5-26.81-.08-13.83-5.57-27.92-10.12-35.24z" fill="#e1e1d1"/><circle cx="67.91" cy="38.6" r="5.63" fill="#1a1b24"/><circle cx="67.91" cy="23.74" r="3.56" fill="#1a1b24"/><path fill="none" d="M57.25 14.55h21.31v45.29H57.25z"/><circle cx="68.56" cy="24.7" r="3.58" fill="#3c3f52" opacity=".2"/><circle cx="68.56" cy="39.46" r="5.63" fill="#3c3f52" opacity=".2"/><path fill="#e35c5c" d="M67.91 88.9l-1.32-37.02h2.64L67.91 88.9z"/><path fill="#e35c5c" d="M75.42 69.04H60.4l-2.5-1.81h20.02l-2.5 1.81z"/><path fill="#3c3f52" opacity=".2" d="M69.23 51.88l.51.41-.72 14.94h-.34l.55-15.35z"/></svg>
